<svg viewBox="0 0 80 80" fill="currentColor">
<path d="M67.3,7.2c-0.1,0-0.8,0.6-1.7,1.4c-2.5,2.3-6.2,6.1-10.7,11c-1.6,1.8-6.8,7-10.8,10.9l-2.3,2.3c0,0,0,0,0,0.1L41.3,34
  c-0.3,0.6-0.7,1.4-0.9,1.8l-0.3,0.6c0,0.1-0.1,0.1-0.1,0.1l-0.5,0.1c-0.3,0.1-1.3,0.4-2.1,0.7c-0.8,0.3-1.6,0.6-1.8,0.6
  c-0.4,0-2.9-0.4-11.3-1.6c-8.7-1.3-14-2.1-16.2-2.3c-0.6-0.1-1.4-0.2-1.9-0.3c-0.5-0.1-1.2-0.2-1.6-0.2c-0.6,0-0.7,0-1,0.3
  c-0.1,0-0.1,0.1-0.1,0.1c-0.1,0.1-0.1,0.3,0.1,0.3c0.2,0.1,0.7,0.3,1.1,0.5c1.4,0.6,2.6,1,3.1,1c0.2,0,0.9,0.2,1.7,0.3
  c1.6,0.4,3.6,0.8,8.8,1.9c6.3,1.3,10.3,2.4,13.5,3.7c2.3,0.9,3.3,1.1,4.3,0.9c1.3-0.3,1.2-0.3,1.7,0c0.9,0.6,1.3,1.6,1.8,4
  c0.2,1,0.2,1.6,0.3,3.5c0,0,1.2,5.1,3.4,12.6c0,0,0,0.1,0,0.1c0.3,0.9,1,3.6,1.8,7.4c0.8,3.5,1.6,6.7,1.8,7.2
  c0.3,0.6,0.5,0.7,0.7,0.2c0.2-0.6,0-3.9-0.5-6.8c-0.1-0.3-0.4-2.2-0.8-4.1c-0.4-1.9-0.7-4-0.8-4.5c-0.2-1.3-0.5-3-0.9-5.5
  c-0.9-4.8-1-5.9-1.1-10.1c0-3,0-3.5,0.2-4.1c0.1-0.4,0.2-0.9,0.2-1c0-0.6-0.3-1.4-1.1-2.5c-0.5-0.7-0.7-1.2-0.7-1.3
  c0.5-0.9,3.4-4.3,6.2-7.4c1-1.2,2.6-2.9,3.4-3.8c0.8-0.9,2.7-3,4.1-4.6c4.4-4.9,7.4-8.4,8.9-10.5c0.3-0.4,0.8-1.1,1.2-1.5
  c0.4-0.5,0.9-1.1,1-1.3C67.3,7.8,67.5,7.2,67.3,7.2z"/>
</svg>
